<?xml version="1.0" encoding="utf-8"?>
<!-- Generator: Adobe Illustrator 19.1.0, SVG Export Plug-In . SVG Version: 6.00 Build 0)  -->
<svg version="1.1" id="Layer_1" xmlns="http://www.w3.org/2000/svg" xmlns:xlink="http://www.w3.org/1999/xlink" x="0px" y="0px"
	 viewBox="0 0 228.4 48.4" style="enable-background:new 0 0 228.4 48.4;" xml:space="preserve">
<style type="text/css">
	.st0{fill:#4D292D;}
</style>
<g>
	<g>
		<path class="st0" d="M9.4,2.4c0,1,0,2.1,0,3.2c0,1.1,0,2.9,0,5.4c0,1.2,0,2.5,0,4c0,1.4,0,2.9,0,4.4c0,1.1-0.1,2.1-0.4,3
			c-0.2,0.9-0.7,1.8-1.3,2.5c-0.6,0.8-1.5,1.5-2.7,2c-1.2,0.6-2.7,0.9-4.6,1.1L0,25.5c1.3-0.2,2.3-0.4,3.1-0.6
			c0.8-0.2,1.4-0.6,2-1.1c0.5-0.5,0.9-1.1,1.1-1.9c0.2-0.7,0.3-1.7,0.3-2.9c0-1.3,0-2.6,0-3.8c0-1.3,0-2.4,0-3.5c0-2.7,0-4.6,0-5.9
			c0-1.2,0-2.3-0.1-3.3H9.4z"/>
		<path class="st0" d="M31,27.6h-2.7v-2.2l0,0c-0.8,0.6-1.9,1.2-3.1,1.8c-1.2,0.6-2.5,0.9-3.7,0.9c-1.6,0-2.9-0.5-3.8-1.5
			c-0.9-1-1.4-2.5-1.4-4.3c0-1,0-2.2,0-3.6c0-1.4,0-2.4,0-3c0-1.1,0-2.6,0-4.2c0-1.7,0-2.6,0-2.8H19c0,0.2,0,1.1,0,2.7
			c0,1.6,0,3,0,3.9c0,0.9,0,1.9,0,3.2c0,1.3,0,2.2,0,2.8c0,1.5,0.3,2.6,0.7,3.3c0.5,0.7,1.2,1,2.2,1c1.1,0,2.2-0.3,3.5-0.9
			c1.3-0.6,2.2-1.1,2.8-1.6c0-0.2,0-0.8,0-2.1c0-1.2,0-2.8,0-4.6c0-1.3,0-2.9,0-4.7c0-1.8,0-2.8,0-3H31c0,0.2,0,0.9,0,2.1
			c0,1.2,0,3.2,0,6.1c0,1.6,0,3,0,4.3S31,24.5,31,27.6z"/>
		<path class="st0" d="M47.3,22.1c0,0.9-0.2,1.8-0.6,2.5c-0.4,0.7-1,1.3-1.7,1.8c-0.7,0.5-1.6,0.8-2.6,1.1c-1,0.2-2.1,0.4-3.3,0.4
			c-0.6,0-1.2,0-1.8-0.1c-0.6-0.1-1-0.1-1.1-0.1l-0.1-2.5c0.1,0,0.5,0,1.2,0.1c0.7,0.1,1.4,0.1,2.1,0.1c0.4,0,0.9,0,1.6-0.1
			c0.7-0.1,1.2-0.2,1.6-0.4c0.6-0.3,1-0.6,1.3-1c0.3-0.4,0.4-0.9,0.4-1.5c0-0.5-0.1-0.9-0.4-1.3c-0.2-0.3-0.6-0.6-1-0.9
			c-0.5-0.3-1.1-0.7-1.9-1.1c-0.8-0.4-1.5-0.8-2.1-1.1c-0.8-0.5-1.4-1.1-1.8-1.8c-0.4-0.7-0.6-1.5-0.6-2.5c0-0.9,0.2-1.8,0.7-2.5
			c0.5-0.7,1.1-1.3,1.9-1.8C40,9,40.8,8.7,41.6,8.6c0.8-0.1,1.7-0.2,2.5-0.2c0.7,0,1.3,0,1.8,0c0.5,0,0.7,0,0.8,0l0.2,2.5
			c-0.1,0-0.4,0-1.1-0.1c-0.6,0-1.4-0.1-2.1-0.1c-0.5,0-1.1,0.1-1.6,0.2c-0.5,0.1-0.9,0.2-1.3,0.4c-0.5,0.3-0.9,0.6-1.1,1
			c-0.2,0.4-0.3,0.8-0.3,1.1c0,0.5,0.2,0.9,0.5,1.3c0.3,0.4,0.7,0.7,1.1,0.9c0.5,0.3,1.2,0.7,2,1.1c0.8,0.4,1.5,0.7,1.8,1
			c0.8,0.6,1.5,1.2,1.9,1.8C47.1,20.4,47.3,21.2,47.3,22.1z"/>
		<path class="st0" d="M62.1,25.3l-0.3,2.4c-0.1,0-0.3,0-0.6,0c-0.3,0-0.6,0-0.8,0c-2.4,0-4.3-0.5-5.5-1.6c-1.2-1.1-1.9-2.7-1.9-4.9
			c0-1.4,0-2.9,0-4.5c0-1.6,0-3.6,0-5.9h-3V8.6h3.2V4.1h2.6v4.5h6.4v2.2h-6.4c0,0.3,0,1,0,2.4c0,1.3,0,2.3,0,2.9c0,0.5,0,1.2,0,1.9
			c0,0.8,0,1.7,0,2.7c0,1.6,0.4,2.8,1.2,3.5c0.8,0.7,2.1,1.1,3.8,1.1c0.2,0,0.5,0,0.8,0S62.1,25.3,62.1,25.3z"/>
		<path class="st0" d="M81.9,9.3c-2.3,5.4-4.8,11.1-7.3,17.2c-2.6,6.1-3.9,9.3-4.1,9.7l-2.5-1l3.7-8.1c-0.1-0.3-0.8-2.1-2.2-5.5
			c-1.4-3.4-3.1-7.5-5.1-12.3L67,8.2c1.3,3.5,2.6,6.9,4,10.4c1.4,3.4,2.1,5.2,2.1,5.4h0c0.1-0.1,0.7-1.8,2-5
			c1.3-3.2,2.7-6.8,4.2-10.6L81.9,9.3z"/>
		<path class="st0" d="M100.9,27.6h-2.8c0-0.4,0-1.5,0-3.5c0-2,0-3.2,0-3.7c0-0.7,0-1.6,0-2.9c0-1.3,0-2.2,0-2.8
			c0-1.4-0.3-2.5-0.8-3.1c-0.5-0.6-1.3-0.9-2.5-0.9c-0.7,0-1.6,0.2-2.7,0.7c-1.1,0.5-2.1,1-3.2,1.7c0,0.1,0,0.9,0,2.2
			c0,1.4,0,2.6,0,3.7c0,1.5,0,3.2,0,5.3c0,2.1,0,3.1,0,3.2h-2.8c0-0.1,0-0.9,0-2.3c0-1.5,0-3.6,0-6.5c0-1.3,0-2.9,0-4.6
			c0-1.8,0-3.7-0.1-5.7h2.8l0,2.2l0,0c1.7-1,3-1.7,4.2-2.1c1.1-0.4,2-0.6,2.8-0.6c1.5,0,2.7,0.5,3.7,1.5c0.9,1,1.4,2.4,1.4,4.2
			c0,1.6,0,2.9,0,4.1c0,1.2,0,2.1,0,2.8c0,1.1,0,2.6,0,4.3C100.9,26.6,100.9,27.5,100.9,27.6z"/>
		<path class="st0" d="M119.7,16.9c0,3.1,0,5.7,0,7.6c0,2,0,3,0,3.2c-0.1,0-0.7,0.1-1.7,0.1c-1,0.1-2.3,0.1-3.8,0.1
			c-1,0-2-0.1-2.9-0.3c-1-0.2-1.8-0.5-2.5-0.8c-0.9-0.5-1.7-1.1-2.3-1.9c-0.6-0.8-0.9-1.8-0.9-2.9c0-1.2,0.3-2.2,1-3.1
			c0.7-0.9,1.7-1.6,2.9-2.1c0.8-0.3,1.8-0.6,3.1-0.9c1.3-0.3,2.8-0.5,4.4-0.6c-0.1-1-0.3-1.8-0.7-2.4c-0.4-0.6-1-1.1-1.7-1.4
			c-0.5-0.2-1.1-0.4-1.7-0.5c-0.6-0.1-1.4-0.1-2.2-0.1c-0.5,0-1,0-1.4,0c-0.4,0-0.9,0.1-1.5,0.1l0.3-2.5c0.2,0,0.5,0,1.1-0.1
			c0.5,0,1.2,0,2.2,0c1.4,0,2.6,0.2,3.7,0.5c1.1,0.3,2,0.8,2.7,1.5c0.7,0.7,1.2,1.5,1.5,2.4C119.5,13.7,119.7,15.1,119.7,16.9z
			 M117,21.4c0-0.4,0-1,0-1.6c0-0.7,0-1.4,0-2.3c-0.5,0-1.4,0.1-2.7,0.3c-1.3,0.2-2.4,0.5-3.3,0.8c-0.7,0.3-1.3,0.7-1.8,1.2
			c-0.5,0.5-0.8,1.2-0.8,2c0,0.9,0.2,1.5,0.7,2.1c0.4,0.5,1,0.9,1.8,1.2c0.6,0.2,1.2,0.4,1.9,0.5c0.7,0.1,1.5,0.1,2.2,0.1
			c0.2,0,0.5,0,0.9,0c0.3,0,0.7,0,1.1,0c0-0.1,0-0.5,0-1.2C117,23.7,117,22.7,117,21.4z"/>
		<path class="st0" d="M139,27.6h-2.9c0-0.8,0-2.1,0.1-4c0-1.9,0-4.7,0-8.3c0-1.4,0-3.3,0-5.6c0-2.3,0-4.7-0.1-7.2h2.9
			c0,1.8,0,3.9-0.1,6.3c0,2.4,0,4.3,0,5.8c0,3.8,0,6.8,0,8.9C139,25.5,139,26.9,139,27.6z"/>
		<path class="st0" d="M149.5,27.6h-2.8c0-0.2,0-2,0-5.5c0-3.5,0-6.4,0-8.8c0-1.5,0-3.4,0-5.7c0-2.3,0-4.8-0.1-7.7h2.8
			c0,1.9,0,4.2-0.1,6.7c0,2.5,0,4.7,0,6.4c0,3.8,0,7.1,0,10C149.5,26,149.5,27.5,149.5,27.6z"/>
		<path class="st0" d="M168.1,25.2l-0.2,2.5c-0.1,0-0.2,0-0.5,0c-0.2,0-0.4,0-0.5,0c-1.5,0-3-0.2-4.3-0.5c-1.3-0.3-2.5-0.8-3.6-1.4
			c-1.4-0.8-2.6-1.9-3.4-3.3c-0.8-1.4-1.2-2.9-1.2-4.6c0-1.5,0.4-2.9,1.1-4.2c0.7-1.3,1.7-2.3,2.9-3.1c1.1-0.7,2.3-1.3,3.8-1.7
			c1.5-0.4,3-0.6,4.6-0.6c0.1,0,0.3,0,0.4,0c0.1,0,0.2,0,0.3,0l0.1,2.5c-0.1,0-0.2,0-0.3,0c-0.1,0-0.2,0-0.3,0
			c-1.3,0-2.4,0.1-3.4,0.3c-0.9,0.2-1.8,0.4-2.7,0.8c-1.2,0.5-2.1,1.3-2.8,2.4c-0.7,1.1-1,2.2-1,3.5c0,1.5,0.3,2.7,1,3.7
			c0.6,1,1.5,1.8,2.6,2.3c0.8,0.4,1.8,0.7,2.8,0.9c1,0.2,2.1,0.3,3.3,0.3c0.2,0,0.4,0,0.6,0C167.8,25.2,168,25.2,168.1,25.2z"/>
		<path class="st0" d="M185.7,27.5c-0.1,0-1.1,0-3,0c-1.9,0-3.4,0-4.3,0c-1.2,0-2.6,0-4.3,0c-1.7,0-2.6,0-2.6,0l-0.6-1.8
			c1.2-1.6,2.7-3.7,4.7-6.4c2-2.7,4-5.4,6-8.2l0,0c-0.5,0-1,0-1.6,0c-0.5,0-1,0-1.5,0c-1.1,0-2.6,0-4.4,0c-1.8,0-2.7,0-2.8,0V8.7
			c0.1,0,1.1,0,2.9,0c1.8,0,2.9,0,3.4,0c0.8,0,2.1,0,3.9,0c1.8,0,2.7,0,2.9,0l0.9,1.8c-2,2.7-4.2,5.6-6.6,8.9
			c-2.3,3.2-3.7,5.1-4.1,5.7l0,0c0.5,0,1,0,1.8,0c0.7,0,1.5,0,2.4,0c2.4,0,4.1,0,5.2,0c1.1,0,1.7,0,1.7,0V27.5z"/>
		<path class="st0" d="M204.8,27.6h-2.7v-2.2l0,0c-0.8,0.6-1.9,1.2-3.1,1.8c-1.2,0.6-2.5,0.9-3.7,0.9c-1.6,0-2.9-0.5-3.8-1.5
			c-0.9-1-1.4-2.5-1.4-4.3c0-1,0-2.2,0-3.6c0-1.4,0-2.4,0-3c0-1.1,0-2.6,0-4.2c0-1.7,0-2.6,0-2.8h2.8c0,0.2,0,1.1,0,2.7
			c0,1.6,0,3,0,3.9c0,0.9,0,1.9,0,3.2c0,1.3,0,2.2,0,2.8c0,1.5,0.3,2.6,0.7,3.3c0.5,0.7,1.2,1,2.2,1c1.1,0,2.2-0.3,3.5-0.9
			c1.3-0.6,2.2-1.1,2.8-1.6c0-0.2,0-0.8,0-2.1c0-1.2,0-2.8,0-4.6c0-1.3,0-2.9,0-4.7c0-1.8,0-2.8,0-3h2.8c0,0.2,0,0.9,0,2.1
			c0,1.2,0,3.2,0,6.1c0,1.6,0,3,0,4.3C204.8,22.3,204.8,24.5,204.8,27.6z"/>
		<path class="st0" d="M214.1,27.6h-2.8c0-0.2,0-1.9,0-5.1c0-3.2,0-6.4,0-9.7c0-1.4,0-3.2,0-5.4c0-2.2,0-4.6-0.1-7.4h2.8
			c0,2.2-0.1,4.8-0.1,7.7c0,2.9,0,4.7,0,5.2c0,1.3,0,4,0,8.1C214.1,25.2,214.1,27.4,214.1,27.6z M226.9,27.3l-1.7,1.6
			c-2.6-2.8-5-5.3-7-7.4c-2.1-2.1-3.2-3.3-3.4-3.5v0c0.3-0.3,1.5-1.6,3.7-4c2.2-2.4,4-4.4,5.4-5.9l1.7,1.9c-1.4,1.4-2.9,3-4.4,4.6
			c-1.5,1.6-2.5,2.6-2.9,3v0C221.7,21.5,224.6,24.7,226.9,27.3z"/>
	</g>
	<g>
		<path class="st0" d="M77.1,33.6v14.8h151.3V33.6H77.1z M100.3,44L98,38.7l0,0c-0.3,0.3-0.9,0.9-1.9,1.8c-1,0.9-1.9,1.9-2.9,2.8
			h-1.5c-0.9-0.9-1.8-1.8-2.9-2.8c-1.1-1-1.7-1.6-1.9-1.8l0,0c0,0.1-0.3,0.7-0.9,1.8c-0.6,1.1-1.1,2.3-1.6,3.5l-1.7-0.1
			c0.7-1.4,1.4-2.7,2.1-4.1c0.6-1.3,1-2.1,1-2.2l1.8-0.1c0.1,0.1,0.6,0.6,1.6,1.5c1,0.9,2.1,2,3.4,3.3h0.1c1-1,2.1-2,3.2-3.1
			c1.1-1.1,1.7-1.7,1.7-1.7l1.7,0.1c0,0.1,0.3,0.8,0.9,2.1c0.6,1.3,1.2,2.7,1.9,4.2L100.3,44z M112.7,43.2c0,0.5,0,0.8,0,0.8
			c-0.1,0-0.4,0-1,0c-0.6,0-1.4,0-2.4,0c-0.6,0-1.2,0-1.8-0.1c-0.6,0-1.1-0.1-1.6-0.2c-0.6-0.1-1.1-0.3-1.4-0.5
			c-0.4-0.2-0.5-0.4-0.5-0.7c0-0.3,0.2-0.6,0.6-0.8c0.4-0.2,1-0.4,1.8-0.5c0.5-0.1,1.1-0.2,1.9-0.2c0.8-0.1,1.7-0.1,2.7-0.2
			c0-0.2-0.2-0.5-0.4-0.6c-0.2-0.2-0.6-0.3-1.1-0.4c-0.3-0.1-0.7-0.1-1.1-0.1c-0.4,0-0.9,0-1.4,0c-0.3,0-0.6,0-0.8,0
			c-0.2,0-0.5,0-0.9,0l0.2-0.6c0.1,0,0.3,0,0.7,0c0.3,0,0.8,0,1.3,0c0.9,0,1.6,0,2.3,0.1c0.7,0.1,1.2,0.2,1.7,0.4
			c0.4,0.2,0.7,0.4,0.9,0.6c0.2,0.2,0.3,0.6,0.3,1.1C112.8,42,112.8,42.7,112.7,43.2z M118.4,42.3c0,1,0,1.6,0,1.6h-1.7
			c0-0.1,0-0.5,0-1.3c0-0.8,0-1.6,0-2.5c0-0.4,0-0.8,0-1.4c0-0.5,0-1.2,0-1.9h1.7c0,0.6,0,1.2,0,2c0,0.7,0,1.2,0,1.3
			C118.4,40.6,118.4,41.3,118.4,42.3z M125.3,44.3c-1.6-0.7-3.1-1.3-4.3-1.9c-1.3-0.5-2-0.8-2.1-0.9v0c0.2-0.1,0.9-0.4,2.3-1
			c1.4-0.6,2.5-1.1,3.3-1.5l1.1,0.5c-0.9,0.4-1.8,0.7-2.7,1.2c-1,0.4-1.6,0.7-1.8,0.8v0c2.2,1,3.9,1.8,5.4,2.4L125.3,44.3z
			 M129.6,42.3c0.3,0.3,0.8,0.5,1.5,0.7c0.4,0.1,0.9,0.2,1.5,0.3c0.5,0.1,1.2,0.1,2,0.1c0.4,0,0.8,0,1.2,0c0.3,0,0.6,0,0.6,0
			l-0.2,0.6c-0.1,0-0.3,0-0.6,0c-0.3,0-0.7,0-1.2,0c-1.2,0-2.2-0.1-3.1-0.2c-0.9-0.1-1.6-0.3-2.1-0.5c-0.5-0.2-0.9-0.4-1.2-0.7
			c-0.3-0.3-0.5-0.6-0.5-1c0-0.4,0.1-0.7,0.4-1c0.2-0.3,0.6-0.6,1.1-0.8c0.4-0.2,1-0.4,1.6-0.5c0.6-0.1,1.3-0.2,2-0.2
			c0.7,0,1.3,0,1.8,0.1c0.5,0.1,1,0.2,1.4,0.4c0.4,0.2,0.8,0.5,1,0.7c0.2,0.3,0.3,0.7,0.4,1.1h-8C129.2,41.7,129.3,42,129.6,42.3z
			 M149.1,42.3c0,0.3,0,0.9,0,1.7h-1.7v-0.6l0,0c-0.5,0.1-1.2,0.3-1.9,0.4c-0.8,0.2-1.5,0.2-2.3,0.2c-1,0-1.8-0.1-2.4-0.4
			c-0.6-0.3-0.9-0.6-0.9-1.1c0-0.3,0-0.6,0-0.9c0-0.4,0-0.6,0-0.8c0-0.3,0-0.6,0-1.1c0-0.4,0-0.7,0-0.7h1.7c0,0,0,0.3,0,0.7
			c0,0.4,0,0.7,0,1c0,0.2,0,0.5,0,0.8c0,0.3,0,0.6,0,0.7c0,0.4,0.2,0.6,0.5,0.8c0.3,0.2,0.7,0.3,1.4,0.3c0.7,0,1.4-0.1,2.2-0.2
			c0.8-0.2,1.4-0.3,1.7-0.4c0,0,0-0.2,0-0.5c0-0.3,0-0.7,0-1.2c0-0.3,0-0.7,0-1.2c0-0.5,0-0.7,0-0.8h1.7c0,0.1,0,0.2,0,0.5
			c0,0.3,0,0.8,0,1.5C149,41.6,149.1,42,149.1,42.3z M161.9,42.7c-0.5,0.3-1.2,0.6-2,0.8c-0.7,0.2-1.6,0.3-2.5,0.4
			c-0.9,0.1-1.7,0.1-2.6,0.1l0,2.2h-1.8c0-0.1,0-0.5,0-1.3s0-1.6,0-2.5c0-0.4,0-0.9,0-1.4c0-0.6,0-1.1,0-1.8c0.2,0,0.5,0,0.7,0
			c0.2,0,0.4,0,0.5,0c1.5,0,2.7,0,3.6,0.1c0.9,0.1,1.6,0.2,2.3,0.4c0.7,0.2,1.3,0.4,1.8,0.7c0.4,0.3,0.6,0.7,0.6,1.1
			C162.7,41.9,162.4,42.3,161.9,42.7z M182.4,44.1c0,0-0.3-0.3-0.7-0.7c-0.4-0.4-1-1-1.7-1.7h-6.5c-0.8,0.7-1.4,1.3-1.8,1.7
			c-0.4,0.4-0.7,0.6-0.7,0.7l-1.5-0.3c0.2-0.2,1-0.9,2.4-2.2c1.4-1.3,2.8-2.6,4.3-4.1h1.4c1.5,1.4,2.9,2.8,4.3,4.1
			c1.4,1.3,2.2,2,2.2,2.1L182.4,44.1z M190.8,40c-0.8,0.1-1.8,0.3-2.9,0.5c0,0,0,0.2,0,0.5c0,0.3,0,0.5,0,0.8c0,0.4,0,0.8,0,1.3
			c0,0.5,0,0.8,0,0.9h-1.7c0-0.1,0-0.2,0-0.5c0-0.3,0-0.8,0-1.5c0-0.3,0-0.7,0-1.2c0-0.5,0-1,0-1.5h1.7v0.7l0,0
			c0.8-0.2,1.6-0.4,2.5-0.5c0.8-0.1,1.5-0.3,1.9-0.3l0.3,0.7C192.3,39.8,191.6,39.8,190.8,40z M201,39.7H197c0,0.1,0,0.3,0,0.6
			c0,0.3,0,0.6,0,0.7c0,0.1,0,0.3,0,0.5c0,0.2,0,0.4,0,0.7c0,0.4,0.3,0.7,0.8,0.9c0.5,0.2,1.3,0.3,2.4,0.3c0.1,0,0.3,0,0.5,0
			c0.2,0,0.3,0,0.4,0l-0.2,0.6c-0.1,0-0.2,0-0.4,0c-0.2,0-0.4,0-0.5,0c-1.5,0-2.6-0.1-3.4-0.4c-0.8-0.3-1.2-0.7-1.2-1.2
			c0-0.4,0-0.7,0-1.1c0-0.4,0-0.9,0-1.5h-1.8v-0.6h1.9V38h1.6v1.1h3.9V39.7z M205.6,43.3c0,0.4,0,0.7,0,0.7h-1.7c0-0.1,0-0.4,0-0.9
			c0-0.6,0-1,0-1.4c0-0.3,0-0.7,0-1.1c0-0.4,0-0.9,0-1.4h1.7c0,0.5,0,0.9,0,1.3c0,0.4,0,0.8,0,1.1C205.6,42.2,205.6,42.8,205.6,43.3
			z M205.7,38.2h-1.9v-0.8h1.9V38.2z M215.4,43.2c-0.3,0.2-0.6,0.3-1,0.4c-0.4,0.1-1,0.2-1.6,0.3c-0.6,0.1-1.3,0.1-2,0.1
			c-0.4,0-0.7,0-1.1,0c-0.4,0-0.6,0-0.7,0l-0.1-0.6c0.1,0,0.3,0,0.8,0c0.4,0,0.9,0,1.3,0c0.3,0,0.6,0,1,0c0.4,0,0.7-0.1,1-0.1
			c0.4-0.1,0.6-0.2,0.8-0.3c0.2-0.1,0.3-0.2,0.3-0.4c0-0.1-0.1-0.2-0.2-0.3c-0.2-0.1-0.4-0.2-0.6-0.2c-0.3-0.1-0.7-0.2-1.2-0.3
			c-0.5-0.1-0.9-0.2-1.3-0.3c-0.5-0.1-0.9-0.3-1.1-0.5c-0.3-0.2-0.4-0.4-0.4-0.6c0-0.2,0.1-0.4,0.4-0.6c0.3-0.2,0.7-0.3,1.2-0.5
			c0.4-0.1,0.9-0.2,1.4-0.2c0.5,0,1,0,1.5,0c0.4,0,0.8,0,1.1,0c0.3,0,0.5,0,0.5,0l0.1,0.6c-0.1,0-0.3,0-0.7,0c-0.4,0-0.8,0-1.3,0
			c-0.3,0-0.7,0-1,0c-0.3,0-0.6,0.1-0.8,0.1c-0.3,0.1-0.5,0.2-0.7,0.3c-0.1,0.1-0.2,0.2-0.2,0.3c0,0.1,0.1,0.2,0.3,0.3
			c0.2,0.1,0.4,0.2,0.7,0.2c0.3,0.1,0.7,0.2,1.2,0.3c0.5,0.1,0.9,0.2,1.1,0.3c0.5,0.1,0.9,0.3,1.2,0.5c0.3,0.2,0.4,0.4,0.4,0.6
			C215.8,42.8,215.7,43,215.4,43.2z M225,39.7H221c0,0.1,0,0.3,0,0.6c0,0.3,0,0.6,0,0.7c0,0.1,0,0.3,0,0.5c0,0.2,0,0.4,0,0.7
			c0,0.4,0.3,0.7,0.8,0.9c0.5,0.2,1.3,0.3,2.4,0.3c0.1,0,0.3,0,0.5,0c0.2,0,0.3,0,0.4,0l-0.2,0.6c-0.1,0-0.2,0-0.4,0
			c-0.2,0-0.4,0-0.5,0c-1.5,0-2.6-0.1-3.4-0.4c-0.8-0.3-1.2-0.7-1.2-1.2c0-0.4,0-0.7,0-1.1c0-0.4,0-0.9,0-1.5h-1.9v-0.6h1.9V38h1.6
			v1.1h3.9V39.7z"/>
		<path class="st0" d="M160.4,40.6c-0.3-0.2-0.8-0.4-1.3-0.6c-0.5-0.1-1.1-0.2-1.7-0.3c-0.6-0.1-1.3-0.1-2-0.1c-0.1,0-0.2,0-0.2,0
			c-0.1,0-0.2,0-0.3,0c0,0.1,0,0.2,0,0.6c0,0.3,0,0.9,0,1.7c0,0.2,0,0.4,0,0.7c0,0.3,0,0.5,0,0.7c0.7,0,1.4,0,2.1-0.1
			c0.7-0.1,1.3-0.1,1.7-0.2c0.7-0.2,1.3-0.4,1.7-0.6c0.4-0.3,0.6-0.6,0.6-1C160.9,41.1,160.7,40.9,160.4,40.6z"/>
		<path class="st0" d="M134.5,39.9c-0.5-0.2-1.2-0.3-2-0.3c-0.8,0-1.5,0.1-2.1,0.3c-0.6,0.2-0.9,0.5-1.1,0.9h6.1
			C135.3,40.5,135,40.1,134.5,39.9z"/>
		<path class="st0" d="M178.1,39.9c-0.4-0.4-0.9-0.9-1.4-1.3l0,0c-0.4,0.3-0.8,0.8-1.3,1.3c-0.5,0.5-1,0.9-1.3,1.2l0,0h5.3l0,0
			C178.9,40.7,178.5,40.3,178.1,39.9z"/>
		<path class="st0" d="M109.4,41.5c-0.8,0-1.5,0.1-2,0.2c-0.4,0.1-0.8,0.2-1.1,0.3c-0.3,0.1-0.5,0.3-0.5,0.5c0,0.2,0.1,0.4,0.4,0.5
			c0.3,0.1,0.6,0.2,1.1,0.3c0.4,0.1,0.8,0.1,1.2,0.1c0.4,0,0.9,0,1.4,0c0.1,0,0.3,0,0.5,0c0.2,0,0.4,0,0.7,0c0,0,0-0.1,0-0.3
			c0-0.2,0-0.4,0-0.8c0-0.1,0-0.2,0-0.4c0-0.2,0-0.4,0-0.6C110.7,41.4,110.2,41.5,109.4,41.5z"/>
	</g>
</g>
</svg>
